<?xml version="1.0" encoding="UTF-8"?>
<svg id="Layer_2" data-name="Layer 2" xmlns="http://www.w3.org/2000/svg" viewBox="0 0 320.91 393.45">
  <defs>
    <style>
      .cls-1, .cls-2 {
        stroke-width: 1.67px;
      }

      .cls-1, .cls-2, .cls-3, .cls-4, .cls-5 {
        fill: none;
        stroke: #63e8ff;
        stroke-linecap: round;
      }

      .cls-1, .cls-3, .cls-4 {
        stroke-miterlimit: 10;
      }

      .cls-2, .cls-5 {
        stroke-linejoin: round;
      }

      .cls-6 {
        opacity: .3;
      }

      .cls-7 {
        fill: #63e8ff;
      }

      .cls-3 {
        stroke-width: .82px;
      }

      .cls-4 {
        stroke-width: .75px;
      }

      .cls-5 {
        stroke-width: 1.67px;
      }
    </style>
  </defs>
  <g id="OBJECTS">
    <g>
      <g class="cls-6">
        <path class="cls-7" d="M126.65,92.81v9.3c0,.23,.18,.41,.41,.41s.41-.18,.41-.41v-9.64l-6.03-6.03v-3.67c.5-.17,.86-.64,.86-1.2,0-.7-.57-1.27-1.27-1.27s-1.27,.57-1.27,1.27c0,.56,.36,1.02,.86,1.2v4.01l6.03,6.03Z"/>
        <path class="cls-7" d="M111.25,105.27c.23,0,.41-.18,.41-.41v-5.07l4.8-4.8v-25.44c.73-.18,1.27-.84,1.27-1.62,0-.93-.75-1.68-1.68-1.68s-1.68,.75-1.68,1.68c0,.78,.54,1.44,1.27,1.62v25.1l-4.8,4.8v5.41c0,.23,.18,.41,.41,.41Zm3.94-37.34c0-.47,.39-.86,.86-.86s.86,.39,.86,.86-.39,.86-.86,.86-.86-.39-.86-.86Z"/>
        <path class="cls-7" d="M97.68,78.6c.73-.18,1.27-.84,1.27-1.62,0-.93-.75-1.68-1.68-1.68s-1.68,.75-1.68,1.68c0,.78,.54,1.44,1.27,1.62v10.42l7.05,7.05v7.56c0,.23,.18,.41,.41,.41s.41-.18,.41-.41v-7.9l-7.05-7.05v-10.08Zm-1.27-1.62c0-.47,.39-.86,.86-.86s.86,.39,.86,.86-.39,.86-.86,.86-.86-.39-.86-.86Z"/>
        <path class="cls-7" d="M107.19,74.21c.5-.17,.86-.64,.86-1.2,0-.7-.57-1.27-1.27-1.27s-1.27,.57-1.27,1.27c0,.56,.36,1.02,.86,1.2v11.09l-1.32,1.32c-.17-.08-.36-.13-.56-.13-.7,0-1.27,.57-1.27,1.27s.57,1.27,1.27,1.27,1.27-.57,1.27-1.27c0-.2-.05-.39-.13-.56l1.56-1.56v-11.43Z"/>
        <path class="cls-7" d="M92.1,107.8c0,.23,.18,.41,.41,.41s.41-.18,.41-.41v-6.91l-6.89-6.89v-21.72l4.46-4.46c.16,.07,.34,.12,.52,.12,.7,0,1.27-.57,1.27-1.27s-.57-1.27-1.27-1.27-1.27,.57-1.27,1.27c0,.21,.06,.41,.15,.59l-4.69,4.69v22.4l6.89,6.89v6.57Z"/>
        <path class="cls-7" d="M65.62,231.96c0-.23-.18-.41-.41-.41h-9.95l-7.66,7.66h-9.63l-4.52-4.52c.14-.24,.22-.52,.22-.81,0-.93-.75-1.68-1.68-1.68s-1.68,.75-1.68,1.68,.75,1.68,1.68,1.68c.33,0,.64-.1,.9-.27l4.74,4.74h10.3l7.66-7.66h9.61c.23,0,.41-.18,.41-.41Zm-34.48,1.91c0-.47,.39-.86,.86-.86s.86,.39,.86,.86-.39,.86-.86,.86-.86-.39-.86-.86Z"/>
        <path class="cls-7" d="M26.59,263.89l6.2,6.2h17.09l7.54-7.54h13.98c.23,0,.41-.18,.41-.41s-.18-.41-.41-.41h-14.31l-7.54,7.54h-16.41l-6.2-6.2H4.44c-.16-.76-.84-1.34-1.64-1.34-.93,0-1.68,.75-1.68,1.68s.75,1.68,1.68,1.68c.76,0,1.4-.51,1.6-1.2H26.59Zm-23.79,.38c-.47,0-.86-.39-.86-.86s.39-.86,.86-.86,.86,.39,.86,.86-.39,.86-.86,.86Z"/>
        <path class="cls-7" d="M29.79,286.52h12.31l9.52-9.52h10.86l6.54,6.54h7.23c.23,0,.41-.18,.41-.41s-.18-.41-.41-.41h-6.89l-6.54-6.54h-11.54l-9.52,9.52h-12.31l-14.46,14.46c-.25-.15-.55-.25-.86-.25-.93,0-1.68,.75-1.68,1.68s.75,1.68,1.68,1.68,1.68-.75,1.68-1.68c0-.31-.09-.6-.24-.85l14.22-14.22Zm-15.66,15.93c-.47,0-.86-.39-.86-.86s.39-.86,.86-.86,.86,.39,.86,.86-.39,.86-.86,.86Z"/>
        <path class="cls-7" d="M45.86,307.22h19.5l9.01-9.01h11.85c.23,0,.41-.18,.41-.41s-.18-.41-.41-.41h-12.19l-9.01,9.01h-19.5l-18.47,18.47c-.16-.07-.33-.11-.51-.11-.7,0-1.27,.57-1.27,1.27s.57,1.27,1.27,1.27,1.27-.57,1.27-1.27c0-.22-.06-.42-.16-.6l18.21-18.21Z"/>
        <path class="cls-7" d="M75.39,321.18h13.54l8.84-8.84,.12-.12v-12.02c0-.23-.18-.41-.41-.41s-.41,.18-.41,.41v11.68l-8.48,8.48h-13.54l-10.46,10.46-.12,.12v8.22c-.5,.17-.86,.64-.86,1.2,0,.7,.57,1.27,1.27,1.27s1.27-.57,1.27-1.27c0-.56-.36-1.02-.86-1.2v-7.88l10.1-10.1Z"/>
        <path class="cls-7" d="M22.36,278.3c.13,.56,.63,.99,1.24,.99,.7,0,1.27-.57,1.27-1.27s-.57-1.27-1.27-1.27c-.51,0-.94,.3-1.15,.73H11.6l-5.66,5.66c-.16-.07-.34-.12-.52-.12-.7,0-1.27,.57-1.27,1.27s.57,1.27,1.27,1.27,1.27-.57,1.27-1.27c0-.21-.06-.41-.15-.59l5.41-5.41h10.42Z"/>
        <path class="cls-7" d="M70.95,69.49c.31,0,.59-.09,.84-.23l4.3,4.3v18.08l-3.64,3.64c-.26-.16-.55-.25-.87-.25-.93,0-1.68,.75-1.68,1.68s.75,1.68,1.68,1.68,1.68-.75,1.68-1.68c0-.31-.09-.59-.23-.84l3.89-3.89v-18.76l-4.53-4.53c.16-.26,.25-.55,.25-.87,0-.93-.75-1.68-1.68-1.68s-1.68,.75-1.68,1.68,.75,1.68,1.68,1.68Zm.62,28.08c-.47,0-.86-.39-.86-.86s.39-.86,.86-.86,.86,.39,.86,.86-.39,.86-.86,.86Zm-.62-30.62c.47,0,.86,.39,.86,.86s-.39,.86-.86,.86-.86-.39-.86-.86,.39-.86,.86-.86Z"/>
        <path class="cls-7" d="M43.42,105.28c.78,0,1.44-.54,1.62-1.27h9.77l9.65,9.65v8.02h13.3l8.41,8.41c.08,.08,.19,.12,.29,.12s.21-.04,.29-.12c.16-.16,.16-.42,0-.58l-8.65-8.65h-12.82v-7.54l-10.01-10.01-.12-.12h-10.11c-.18-.73-.84-1.27-1.62-1.27-.93,0-1.68,.75-1.68,1.68s.75,1.68,1.68,1.68Zm0-2.54c.47,0,.86,.39,.86,.86s-.39,.86-.86,.86-.86-.39-.86-.86,.39-.86,.86-.86Z"/>
        <path class="cls-7" d="M30.09,138.89c.75,0,1.38-.5,1.6-1.18h19.18l5.76-5.76h9.92l5.99,5.99c.08,.08,.19,.12,.29,.12s.21-.04,.29-.12c.16-.16,.16-.42,0-.58l-6.23-6.23h-10.6l-5.76,5.76H31.74c-.15-.77-.83-1.36-1.65-1.36-.93,0-1.68,.75-1.68,1.68s.75,1.68,1.68,1.68Zm0-2.54c.47,0,.86,.39,.86,.86s-.39,.86-.86,.86-.86-.39-.86-.86,.39-.86,.86-.86Z"/>
        <path class="cls-7" d="M19.2,174.15c.93,0,1.68-.75,1.68-1.68,0-.34-.1-.66-.28-.92l11.69-11.69h14.06l6.75-6.75h8.56c.23,0,.41-.18,.41-.41s-.18-.41-.41-.41h-8.9l-6.75,6.75h-14.06l-11.97,11.96c-.24-.13-.5-.21-.79-.21-.93,0-1.68,.75-1.68,1.68s.75,1.68,1.68,1.68Zm0-2.54c.47,0,.86,.39,.86,.86s-.39,.86-.86,.86-.86-.39-.86-.86,.39-.86,.86-.86Z"/>
        <path class="cls-7" d="M6.24,213.95c.93,0,1.68-.75,1.68-1.68,0-.35-.11-.67-.28-.93l7.95-7.95h19.56l10.12-10.12h9.82c.23,0,.41-.18,.41-.41s-.18-.41-.41-.41h-10.16l-10.12,10.12H15.24l-8.22,8.22c-.23-.12-.5-.2-.78-.2-.93,0-1.68,.75-1.68,1.68s.75,1.68,1.68,1.68Zm0-2.54c.47,0,.86,.39,.86,.86s-.39,.86-.86,.86-.86-.39-.86-.86,.39-.86,.86-.86Z"/>
        <path class="cls-7" d="M53.31,319.68c-.93,0-1.68,.75-1.68,1.68,0,.3,.08,.57,.22,.81l-6.66,6.66v18.29c-.73,.18-1.27,.84-1.27,1.62,0,.93,.75,1.68,1.68,1.68s1.68-.75,1.68-1.68c0-.78-.54-1.44-1.27-1.62v-17.95l6.4-6.4c.26,.17,.57,.27,.9,.27,.93,0,1.68-.75,1.68-1.68s-.75-1.68-1.68-1.68Zm-6.85,29.07c0,.47-.39,.86-.86,.86s-.86-.39-.86-.86,.39-.86,.86-.86,.86,.39,.86,.86Zm6.85-26.53c-.47,0-.86-.39-.86-.86s.39-.86,.86-.86,.86,.39,.86,.86-.39,.86-.86,.86Z"/>
        <path class="cls-7" d="M98.47,328.02c-.93,0-1.68,.75-1.68,1.68,0,.28,.07,.53,.19,.76l-10.09,10.09-.12,.12v12.74c-.73,.18-1.27,.84-1.27,1.62,0,.93,.75,1.68,1.68,1.68s1.68-.75,1.68-1.68c0-.78-.54-1.44-1.27-1.62v-12.4l9.93-9.93c.27,.19,.6,.3,.95,.3,.93,0,1.68-.75,1.68-1.68s-.75-1.68-1.68-1.68Zm-10.43,27.01c0,.47-.39,.86-.86,.86s-.86-.39-.86-.86,.39-.86,.86-.86,.86,.39,.86,.86Zm10.43-24.47c-.47,0-.86-.39-.86-.86s.39-.86,.86-.86,.86,.39,.86,.86-.39,.86-.86,.86Z"/>
        <path class="cls-7" d="M128.56,333.2v-19.28c0-.23-.18-.41-.41-.41s-.41,.18-.41,.41v19.25c-.75,.17-1.31,.84-1.31,1.64,0,.93,.75,1.68,1.68,1.68s1.68-.75,1.68-1.68c0-.77-.52-1.41-1.22-1.61Zm-.46,2.47c-.47,0-.86-.39-.86-.86s.39-.86,.86-.86,.86,.39,.86,.86-.39,.86-.86,.86Z"/>
        <path class="cls-7" d="M63.49,87.17v10.51l8.29,8.29h9.97l6.13,6.13c.08,.08,.19,.12,.29,.12s.21-.04,.29-.12c.16-.16,.16-.42,0-.58l-6.37-6.37h-9.97l-7.81-7.81v-10.17c.5-.17,.86-.64,.86-1.2,0-.7-.57-1.27-1.27-1.27s-1.27,.57-1.27,1.27c0,.56,.36,1.02,.86,1.2Z"/>
        <path class="cls-7" d="M34.51,120.21c.56,0,1.02-.36,1.2-.86h5.85l5.86,5.86h8.72c.17,.5,.64,.86,1.2,.86,.7,0,1.27-.57,1.27-1.27s-.57-1.27-1.27-1.27c-.56,0-1.02,.36-1.2,.86h-8.38l-5.86-5.86h-6.19c-.17-.5-.64-.86-1.2-.86-.7,0-1.27,.57-1.27,1.27s.57,1.27,1.27,1.27Z"/>
        <path class="cls-7" d="M20.51,144.57c.2,0,.39-.05,.56-.13l4.29,4.29h14.31c.17,.5,.64,.86,1.2,.86,.7,0,1.27-.57,1.27-1.27s-.57-1.27-1.27-1.27c-.56,0-1.02,.36-1.2,.86h-13.97l-4.05-4.05c.08-.17,.13-.36,.13-.56,0-.7-.57-1.27-1.27-1.27s-1.27,.57-1.27,1.27,.57,1.27,1.27,1.27Z"/>
        <path class="cls-7" d="M8.23,188.72c.56,0,1.02-.36,1.2-.86h12.75l17.74-17.74h6.06l5.42,5.42h11.07c.23,0,.41-.18,.41-.41s-.18-.41-.41-.41h-10.73l-5.42-5.42h-6.74l-17.74,17.74H9.42c-.17-.5-.64-.86-1.2-.86-.7,0-1.27,.57-1.27,1.27s.57,1.27,1.27,1.27Z"/>
        <path class="cls-7" d="M2.47,234.22H12.8l9.98-9.98h13.76l8.3-8.3h9.65c.23,0,.41-.18,.41-.41s-.18-.41-.41-.41h-9.99l-8.3,8.3h-13.76l-9.98,9.98H2.47c-.17-.5-.64-.86-1.2-.86-.7,0-1.27,.57-1.27,1.27s.57,1.27,1.27,1.27c.56,0,1.02-.36,1.2-.86Z"/>
        <path class="cls-7" d="M21.52,238.68c-.7,0-1.27,.57-1.27,1.27s.57,1.27,1.27,1.27c.2,0,.39-.05,.56-.13l5.58,5.58h17.96l4.65,4.65h12.13c.23,0,.41-.18,.41-.41s-.18-.41-.41-.41h-11.8l-4.65-4.65H27.99l-5.34-5.34c.08-.17,.13-.36,.13-.56,0-.7-.57-1.27-1.27-1.27Z"/>
        <path class="cls-7" d="M118.62,358.98c-.2,0-.39,.05-.56,.13l-9.74-9.74v-16.11l8.68-8.68,.12-.12v-12.55c0-.23-.18-.41-.41-.41s-.41,.18-.41,.41v12.21l-8.68,8.68-.12,.12v16.79l9.98,9.98c-.08,.17-.13,.36-.13,.56,0,.7,.57,1.27,1.27,1.27s1.27-.57,1.27-1.27-.57-1.27-1.27-1.27Z"/>
        <path class="cls-7" d="M52.01,296.62c.18,.73,.84,1.27,1.62,1.27,.93,0,1.68-.75,1.68-1.68s-.75-1.68-1.68-1.68c-.78,0-1.44,.54-1.62,1.27h-12.32l-7.1,7.1c-.26-.16-.56-.26-.88-.26-.93,0-1.68,.75-1.68,1.68s.75,1.68,1.68,1.68,1.68-.75,1.68-1.68c0-.3-.09-.58-.23-.83l6.87-6.87h11.98Zm1.62-1.27c.47,0,.86,.39,.86,.86s-.39,.86-.86,.86-.86-.39-.86-.86,.39-.86,.86-.86Zm-21.92,9.83c-.47,0-.86-.39-.86-.86s.39-.86,.86-.86,.86,.39,.86,.86-.39,.86-.86,.86Z"/>
      </g>
      <g class="cls-6">
        <path class="cls-7" d="M194.26,92.81v9.3c0,.23-.18,.41-.41,.41s-.41-.18-.41-.41v-9.64l6.03-6.03v-3.67c-.5-.17-.86-.64-.86-1.2,0-.7,.57-1.27,1.27-1.27s1.27,.57,1.27,1.27c0,.56-.36,1.02-.86,1.2v4.01l-6.03,6.03Z"/>
        <path class="cls-7" d="M210.07,104.86v-5.41l-4.8-4.8v-25.1c.73-.18,1.27-.84,1.27-1.62,0-.93-.75-1.68-1.68-1.68s-1.68,.75-1.68,1.68c0,.78,.54,1.44,1.27,1.62v25.44l4.8,4.8v5.07c0,.23,.18,.41,.41,.41s.41-.18,.41-.41Zm-5.21-36.07c-.47,0-.86-.39-.86-.86s.39-.86,.86-.86,.86,.39,.86,.86-.39,.86-.86,.86Z"/>
        <path class="cls-7" d="M223.23,88.68l-7.05,7.05v7.9c0,.23,.18,.41,.41,.41s.41-.18,.41-.41v-7.56l7.05-7.05v-10.42c.73-.18,1.27-.84,1.27-1.62,0-.93-.75-1.68-1.68-1.68s-1.68,.75-1.68,1.68c0,.78,.54,1.44,1.27,1.62v10.08Zm.41-10.85c-.47,0-.86-.39-.86-.86s.39-.86,.86-.86,.86,.39,.86,.86-.39,.86-.86,.86Z"/>
        <path class="cls-7" d="M213.72,74.21c-.5-.17-.86-.64-.86-1.2,0-.7,.57-1.27,1.27-1.27s1.27,.57,1.27,1.27c0,.56-.36,1.02-.86,1.2v11.09l1.32,1.32c.17-.08,.36-.13,.56-.13,.7,0,1.27,.57,1.27,1.27s-.57,1.27-1.27,1.27-1.27-.57-1.27-1.27c0-.2,.05-.39,.13-.56l-1.56-1.56v-11.43Z"/>
        <path class="cls-7" d="M228.81,107.8c0,.23-.18,.41-.41,.41s-.41-.18-.41-.41v-6.91l6.89-6.89v-21.72l-4.46-4.46c-.16,.07-.34,.12-.52,.12-.7,0-1.27-.57-1.27-1.27s.57-1.27,1.27-1.27,1.27,.57,1.27,1.27c0,.21-.06,.41-.15,.59l4.69,4.69v22.4l-6.89,6.89v6.57Z"/>
        <path class="cls-7" d="M255.7,232.37h9.61l7.66,7.66h10.3l4.74-4.74c.26,.17,.57,.27,.9,.27,.93,0,1.68-.75,1.68-1.68s-.75-1.68-1.68-1.68-1.68,.75-1.68,1.68c0,.3,.08,.57,.22,.81l-4.52,4.52h-9.63l-7.66-7.66h-9.95c-.23,0-.41,.18-.41,.41s.18,.41,.41,.41Zm33.21,2.36c-.47,0-.86-.39-.86-.86s.39-.86,.86-.86,.86,.39,.86,.86-.39,.86-.86,.86Z"/>
        <path class="cls-7" d="M316.51,263.89c.21,.69,.84,1.2,1.6,1.2,.93,0,1.68-.75,1.68-1.68s-.75-1.68-1.68-1.68c-.81,0-1.49,.58-1.64,1.34h-22.49l-6.2,6.2h-16.41l-7.54-7.54h-14.31c-.23,0-.41,.18-.41,.41s.18,.41,.41,.41h13.98l7.54,7.54h17.09l6.2-6.2h22.19Zm.74-.48c0-.47,.39-.86,.86-.86s.86,.39,.86,.86-.39,.86-.86,.86-.86-.39-.86-.86Z"/>
        <path class="cls-7" d="M305.34,300.74c-.15,.25-.24,.54-.24,.85,0,.93,.75,1.68,1.68,1.68s1.68-.75,1.68-1.68-.75-1.68-1.68-1.68c-.32,0-.61,.09-.86,.25l-14.46-14.46h-12.31l-9.52-9.52h-11.54l-6.54,6.54h-6.89c-.23,0-.41,.18-.41,.41s.18,.41,.41,.41h7.23l6.54-6.54h10.86l9.52,9.52h12.31l14.22,14.22Zm.58,.85c0-.47,.39-.86,.86-.86s.86,.39,.86,.86-.39,.86-.86,.86-.86-.39-.86-.86Z"/>
        <path class="cls-7" d="M275.05,307.22h-19.5l-9.01-9.01h-11.85c-.23,0-.41-.18-.41-.41s.18-.41,.41-.41h12.19l9.01,9.01h19.5l18.47,18.47c.16-.07,.33-.11,.51-.11,.7,0,1.27,.57,1.27,1.27s-.57,1.27-1.27,1.27-1.27-.57-1.27-1.27c0-.22,.06-.42,.16-.6l-18.21-18.21Z"/>
        <path class="cls-7" d="M245.52,321.18h-13.54l-8.84-8.84-.12-.12v-12.02c0-.23,.18-.41,.41-.41s.41,.18,.41,.41v11.68l8.48,8.48h13.54l10.46,10.46,.12,.12v8.22c.5,.17,.86,.64,.86,1.2,0,.7-.57,1.27-1.27,1.27s-1.27-.57-1.27-1.27c0-.56,.36-1.02,.86-1.2v-7.88l-10.1-10.1Z"/>
        <path class="cls-7" d="M298.55,278.3c-.13,.56-.63,.99-1.24,.99-.7,0-1.27-.57-1.27-1.27s.57-1.27,1.27-1.27c.51,0,.94,.3,1.15,.73h10.85l5.66,5.66c.16-.07,.34-.12,.52-.12,.7,0,1.27,.57,1.27,1.27s-.57,1.27-1.27,1.27-1.27-.57-1.27-1.27c0-.21,.06-.41,.15-.59l-5.41-5.41h-10.42Z"/>
        <path class="cls-7" d="M251.64,67.81c0-.93-.75-1.68-1.68-1.68s-1.68,.75-1.68,1.68c0,.32,.1,.62,.25,.87l-4.53,4.53v18.76l3.89,3.89c-.14,.25-.23,.53-.23,.84,0,.93,.75,1.68,1.68,1.68s1.68-.75,1.68-1.68-.75-1.68-1.68-1.68c-.32,0-.62,.09-.87,.25l-3.64-3.64v-18.08l4.3-4.3c.25,.14,.53,.23,.84,.23,.93,0,1.68-.75,1.68-1.68Zm-3.16,28.9c0-.47,.39-.86,.86-.86s.86,.39,.86,.86-.39,.86-.86,.86-.86-.39-.86-.86Zm2.34-28.9c0,.47-.39,.86-.86,.86s-.86-.39-.86-.86,.39-.86,.86-.86,.86,.39,.86,.86Z"/>
        <path class="cls-7" d="M279.17,103.6c0-.93-.75-1.68-1.68-1.68-.78,0-1.44,.54-1.62,1.27h-10.11l-.12,.12-10.01,10.01v7.54h-12.82l-8.65,8.65c-.16,.16-.16,.42,0,.58,.08,.08,.19,.12,.29,.12s.21-.04,.29-.12l8.41-8.41h13.3v-8.02l9.65-9.65h9.77c.18,.73,.84,1.27,1.62,1.27,.93,0,1.68-.75,1.68-1.68Zm-.82,0c0,.47-.39,.86-.86,.86s-.86-.39-.86-.86,.39-.86,.86-.86,.86,.39,.86,.86Z"/>
        <path class="cls-7" d="M292.5,137.21c0-.93-.75-1.68-1.68-1.68-.82,0-1.5,.59-1.65,1.36h-18.79l-5.76-5.76h-10.6l-6.23,6.23c-.16,.16-.16,.42,0,.58,.08,.08,.19,.12,.29,.12s.21-.04,.29-.12l5.99-5.99h9.92l5.76,5.76h19.18c.21,.68,.84,1.18,1.6,1.18,.93,0,1.68-.75,1.68-1.68Zm-.82,0c0,.47-.39,.86-.86,.86s-.86-.39-.86-.86,.39-.86,.86-.86,.86,.39,.86,.86Z"/>
        <path class="cls-7" d="M303.39,172.47c0-.93-.75-1.68-1.68-1.68-.29,0-.55,.08-.79,.21l-11.97-11.96h-14.06l-6.75-6.75h-8.9c-.23,0-.41,.18-.41,.41s.18,.41,.41,.41h8.56l6.75,6.75h14.06l11.69,11.69c-.17,.26-.28,.58-.28,.92,0,.93,.75,1.68,1.68,1.68s1.68-.75,1.68-1.68Zm-.82,0c0,.47-.39,.86-.86,.86s-.86-.39-.86-.86,.39-.86,.86-.86,.86,.39,.86,.86Z"/>
        <path class="cls-7" d="M316.35,212.27c0-.93-.75-1.68-1.68-1.68-.28,0-.54,.08-.78,.2l-8.22-8.22h-19.56l-10.12-10.12h-10.16c-.23,0-.41,.18-.41,.41s.18,.41,.41,.41h9.82l10.12,10.12h19.56l7.95,7.95c-.18,.27-.29,.59-.29,.93,0,.93,.75,1.68,1.68,1.68s1.68-.75,1.68-1.68Zm-.82,0c0,.47-.39,.86-.86,.86s-.86-.39-.86-.86,.39-.86,.86-.86,.86,.39,.86,.86Z"/>
        <path class="cls-7" d="M265.92,321.36c0,.93,.75,1.68,1.68,1.68,.33,0,.64-.1,.9-.27l6.4,6.4v17.95c-.73,.18-1.27,.84-1.27,1.62,0,.93,.75,1.68,1.68,1.68s1.68-.75,1.68-1.68c0-.78-.54-1.44-1.27-1.62v-18.29l-6.66-6.66c.14-.24,.22-.52,.22-.81,0-.93-.75-1.68-1.68-1.68s-1.68,.75-1.68,1.68Zm9.39,26.53c.47,0,.86,.39,.86,.86s-.39,.86-.86,.86-.86-.39-.86-.86,.39-.86,.86-.86Zm-8.57-26.53c0-.47,.39-.86,.86-.86s.86,.39,.86,.86-.39,.86-.86,.86-.86-.39-.86-.86Z"/>
        <path class="cls-7" d="M220.76,329.7c0,.93,.75,1.68,1.68,1.68,.35,0,.68-.11,.95-.3l9.93,9.93v12.4c-.73,.18-1.27,.84-1.27,1.62,0,.93,.75,1.68,1.68,1.68s1.68-.75,1.68-1.68c0-.78-.54-1.44-1.27-1.62v-12.74l-.12-.12-10.09-10.09c.12-.23,.19-.49,.19-.76,0-.93-.75-1.68-1.68-1.68s-1.68,.75-1.68,1.68Zm12.97,24.47c.47,0,.86,.39,.86,.86s-.39,.86-.86,.86-.86-.39-.86-.86,.39-.86,.86-.86Zm-12.15-24.47c0-.47,.39-.86,.86-.86s.86,.39,.86,.86-.39,.86-.86,.86-.86-.39-.86-.86Z"/>
        <path class="cls-7" d="M191.12,334.81c0,.93,.75,1.68,1.68,1.68s1.68-.75,1.68-1.68c0-.8-.56-1.47-1.31-1.64v-19.25c0-.23-.18-.41-.41-.41s-.41,.18-.41,.41v19.28c-.7,.2-1.22,.84-1.22,1.61Zm.82,0c0-.47,.39-.86,.86-.86s.86,.39,.86,.86-.39,.86-.86,.86-.86-.39-.86-.86Z"/>
        <path class="cls-7" d="M257.42,87.17v10.51l-8.29,8.29h-9.97l-6.13,6.13c-.08,.08-.19,.12-.29,.12s-.21-.04-.29-.12c-.16-.16-.16-.42,0-.58l6.37-6.37h9.97l7.81-7.81v-10.17c-.5-.17-.86-.64-.86-1.2,0-.7,.57-1.27,1.27-1.27s1.27,.57,1.27,1.27c0,.56-.36,1.02-.86,1.2Z"/>
        <path class="cls-7" d="M286.4,120.21c-.56,0-1.02-.36-1.2-.86h-5.85l-5.86,5.86h-8.72c-.17,.5-.64,.86-1.2,.86-.7,0-1.27-.57-1.27-1.27s.57-1.27,1.27-1.27c.56,0,1.02,.36,1.2,.86h8.38l5.86-5.86h6.19c.17-.5,.64-.86,1.2-.86,.7,0,1.27,.57,1.27,1.27s-.57,1.27-1.27,1.27Z"/>
        <path class="cls-7" d="M300.4,144.57c-.2,0-.39-.05-.56-.13l-4.29,4.29h-14.31c-.17,.5-.64,.86-1.2,.86-.7,0-1.27-.57-1.27-1.27s.57-1.27,1.27-1.27c.56,0,1.02,.36,1.2,.86h13.97l4.05-4.05c-.08-.17-.13-.36-.13-.56,0-.7,.57-1.27,1.27-1.27s1.27,.57,1.27,1.27-.57,1.27-1.27,1.27Z"/>
        <path class="cls-7" d="M312.68,188.72c-.56,0-1.02-.36-1.2-.86h-12.75l-17.74-17.74h-6.06l-5.42,5.42h-11.07c-.23,0-.41-.18-.41-.41s.18-.41,.41-.41h10.73l5.42-5.42h6.74l17.74,17.74h12.41c.17-.5,.64-.86,1.2-.86,.7,0,1.27,.57,1.27,1.27s-.57,1.27-1.27,1.27Z"/>
        <path class="cls-7" d="M318.44,234.22h-10.34l-9.98-9.98h-13.76l-8.3-8.3h-9.65c-.23,0-.41-.18-.41-.41s.18-.41,.41-.41h9.99l8.3,8.3h13.76l9.98,9.98h10c.17-.5,.64-.86,1.2-.86,.7,0,1.27,.57,1.27,1.27s-.57,1.27-1.27,1.27c-.56,0-1.02-.36-1.2-.86Z"/>
        <path class="cls-7" d="M299.39,238.68c.7,0,1.27,.57,1.27,1.27s-.57,1.27-1.27,1.27c-.2,0-.39-.05-.56-.13l-5.58,5.58h-17.96l-4.65,4.65h-12.13c-.23,0-.41-.18-.41-.41s.18-.41,.41-.41h11.8l4.65-4.65h17.96l5.34-5.34c-.08-.17-.13-.36-.13-.56,0-.7,.57-1.27,1.27-1.27Z"/>
        <path class="cls-7" d="M202.29,358.98c.2,0,.39,.05,.56,.13l9.74-9.74v-16.11l-8.68-8.68-.12-.12v-12.55c0-.23,.18-.41,.41-.41s.41,.18,.41,.41v12.21l8.68,8.68,.12,.12v16.79l-9.98,9.98c.08,.17,.13,.36,.13,.56,0,.7-.57,1.27-1.27,1.27s-1.27-.57-1.27-1.27,.57-1.27,1.27-1.27Z"/>
        <path class="cls-7" d="M280.88,296.62l6.87,6.87c-.14,.25-.23,.53-.23,.83,0,.93,.75,1.68,1.68,1.68s1.68-.75,1.68-1.68-.75-1.68-1.68-1.68c-.33,0-.63,.1-.88,.26l-7.1-7.1h-12.32c-.18-.73-.84-1.27-1.62-1.27-.93,0-1.68,.75-1.68,1.68s.75,1.68,1.68,1.68c.78,0,1.44-.54,1.62-1.27h11.98Zm-12.74-.41c0,.47-.39,.86-.86,.86s-.86-.39-.86-.86,.39-.86,.86-.86,.86,.39,.86,.86Zm20.2,8.11c0-.47,.39-.86,.86-.86s.86,.39,.86,.86-.39,.86-.86,.86-.86-.39-.86-.86Z"/>
      </g>
    </g>
    <g>
      <g>
        <path class="cls-1" d="M141.02,277.89v20.66c-.17,6-3.99,11.5-9.43,14.03-5.44,2.52-12.43,1.44-16.67-2.8-4.24-4.24-5.09-11.34-1.98-16.47"/>
        <path class="cls-1" d="M141.02,135.34v-17.43c-.17-6-3.99-11.5-9.43-14.03-5.44-2.52-12.43-1.44-16.67,2.8-4.24,4.24-5.27,11.42-2.17,16.56"/>
        <path class="cls-1" d="M118.66,276.83c.45,7.47-3.1,15.09-9.19,19.43-6.09,4.34-14.53,5.21-21.32,2.06-6.78-3.15-11.6-10.23-11.89-17.71-.18-4.55,1.27-9.19,4.23-12.66,2.95-3.47,7.42-5.66,11.98-5.62"/>
        <path class="cls-1" d="M83.06,225.49c-7.34-.74-14.94,3.06-18.76,9.36-3.82,6.31-3.67,14.8,.38,20.97,4.05,6.16,11.79,10.01,19.09,9"/>
        <path class="cls-2" d="M62.47,175.14c-3.37-3.07-5.3-7.67-5.12-12.24,.18-4.56,2.45-9,6.06-11.8,1.68-1.31,3.63-2.24,5.68-2.78"/>
        <path class="cls-2" d="M84.61,165.38c-5.32-.42-10.34-3.58-13.07-8.17-2.73-4.59-3.14-10.47-1.13-15.41s6.38-8.85,11.49-10.38c4.82-1.44,10.23-.76,14.55,1.82,4.32,2.58,7.47,7.03,8.49,11.95"/>
        <path class="cls-1" d="M86.46,129.8c-1.9-4.97-1.63-10.73,.74-15.49s6.8-8.46,11.91-9.94c5.11-1.48,10.83-.72,15.37,2.04"/>
        <path class="cls-2" d="M66.84,207.8c-5.37-2.44-9.64-7.29-11.16-13s-.14-12.14,3.74-16.59c3.88-4.44,10.22-6.67,15.98-5.4"/>
        <path class="cls-2" d="M65.9,231.96c-5.45-2.15-9.7-7.1-10.99-12.82-1.29-5.71,.43-12.02,4.43-16.29"/>
        <path class="cls-1" d="M130.32,136.61c5.18-2.25,11.56-1.46,16.04,1.99,4.48,3.45,6.87,9.42,6.01,15s-4.92,10.56-10.23,12.52"/>
        <path class="cls-1" d="M134.42,275.02c3.47,2.87,8.62,3.52,12.69,1.6s6.85-6.3,6.85-10.8c0-4.5-2.79-8.88-6.86-10.79"/>
        <path class="cls-5" d="M147.62,162.59c5.14,3.14,7.84,9.81,6.34,15.64-1,3.89-3.82,7.19-7.37,9.04v6.37"/>
        <path class="cls-5" d="M148.8,255.86c3.06,.3,6.08-1.9,7.5-4.63,1.42-2.73,1.33-6.09,.16-8.93-.96-2.34-2.72-4.44-5.07-5.37-2.35-.93-5.32-.46-6.96,1.46v-6.64"/>
        <path class="cls-1" d="M87.6,147.38c1.02,4.13,3.9,7.75,7.69,9.68,3.79,1.93,8.42,2.12,12.35,.52,3.94-1.6,7.11-4.98,8.47-9"/>
        <path class="cls-1" d="M73.17,194.37c3.82,2.34,6.57,6.35,7.37,10.76,.8,4.41-.36,9.13-3.11,12.66"/>
        <path class="cls-1" d="M82.15,247.41c5.8-.6,11.31-3.62,14.93-8.19,3.62-4.57,5.3-10.63,4.55-16.41"/>
        <path class="cls-1" d="M103,286.12c-1.13-5.15,.44-10.82,4.06-14.66,3.62-3.83,9.19-5.72,14.4-4.89"/>
        <path class="cls-1" d="M97.18,239.09c3.54,1.82,6.53,4.67,8.52,8.11,1.99,3.44,2.97,7.46,2.78,11.43"/>
        <path class="cls-1" d="M77.37,198.16c3.61-.42,7.01-2.4,9.16-5.33,2.15-2.93,3.01-6.77,2.33-10.33"/>
        <path class="cls-1" d="M101.07,158.91c-.43,4.52,1.11,9.19,4.15,12.56,3.04,3.37,7.52,5.39,12.06,5.44"/>
        <path class="cls-1" d="M130.54,241.98c-4.62-3.27-7.56-8.79-7.71-14.44s2.51-11.32,6.95-14.83h11.38"/>
        <path class="cls-1" d="M122.98,222.45c-5.49-.81-10.33-5.01-11.91-10.33-1.57-5.32,.2-11.48,4.37-15.15"/>
        <path class="cls-1" d="M94.92,206.15c3.48-1.14,6.48-3.66,8.2-6.88s2.13-7.13,1.14-10.64"/>
        <path class="cls-1" d="M133.64,157.5c-2.39,3.19-3.09,7.58-1.8,11.36,1.29,3.78,4.52,6.83,8.37,7.89"/>
        <path class="cls-1" d="M112.12,134.24c4.32-.59,8.34-3.05,10.84-6.62s3.41-8.2,2.48-12.45"/>
        <path class="cls-1" d="M127.28,187.72c-.54,4.24,.85,8.69,3.71,11.86h10.18"/>
        <path class="cls-1" d="M138.78,265.68c-.83-3.54-2.97-6.75-5.91-8.89s-6.66-3.17-10.28-2.87"/>
        <path class="cls-1" d="M86.21,279.67c1.76-2.91,4.66-5.12,7.93-6.05,3.27-.93,6.9-.59,9.93,.95"/>
        <path class="cls-2" d="M107.74,147.49c0,1.28-1.04,2.31-2.31,2.31s-2.31-1.04-2.31-2.31,1.04-2.31,2.31-2.31,2.31,1.04,2.31,2.31Z"/>
        <path class="cls-2" d="M121.9,176.91c0,1.28-1.04,2.31-2.31,2.31s-2.31-1.04-2.31-2.31,1.04-2.31,2.31-2.31,2.31,1.04,2.31,2.31Z"/>
        <path class="cls-2" d="M129.76,184.82c.27,1.25-.53,2.48-1.78,2.75-1.25,.27-2.48-.53-2.75-1.78-.27-1.25,.53-2.48,1.78-2.75,1.25-.27,2.48,.53,2.75,1.78Z"/>
        <path class="cls-2" d="M137.19,154.94c.31,1.24-.45,2.49-1.69,2.8-1.24,.31-2.49-.45-2.8-1.69-.31-1.24,.45-2.49,1.69-2.8,1.24-.31,2.49,.45,2.8,1.69Z"/>
        <path class="cls-2" d="M141.97,166.57c.31,1.24-.45,2.49-1.69,2.8-1.24,.31-2.49-.45-2.8-1.69-.31-1.24,.45-2.49,1.69-2.8,1.24-.31,2.49,.45,2.8,1.69Z"/>
        <path class="cls-2" d="M89.16,145.18c0,1.28-1.04,2.31-2.31,2.31s-2.31-1.04-2.31-2.31,1.04-2.31,2.31-2.31,2.31,1.04,2.31,2.31Z"/>
        <circle class="cls-2" cx="87.2" cy="165.77" r="2.31"/>
        <path class="cls-2" d="M80.08,173.31c0,1.28-1.04,2.31-2.31,2.31s-2.31-1.04-2.31-2.31,1.04-2.31,2.31-2.31,2.31,1.04,2.31,2.31Z"/>
        <path class="cls-2" d="M71.4,209.07c0,1.28-1.04,2.31-2.31,2.31s-2.31-1.04-2.31-2.31,1.04-2.31,2.31-2.31,2.31,1.04,2.31,2.31Z"/>
        <path class="cls-2" d="M87.89,225.88c0,1.28-1.04,2.31-2.31,2.31s-2.31-1.04-2.31-2.31,1.04-2.31,2.31-2.31,2.31,1.04,2.31,2.31Z"/>
        <path class="cls-2" d="M103.63,220.5c0,1.28-1.04,2.31-2.31,2.31s-2.31-1.04-2.31-2.31,1.04-2.31,2.31-2.31,2.31,1.04,2.31,2.31Z"/>
        <path class="cls-2" d="M110.82,260.94c0,1.28-1.04,2.31-2.31,2.31s-2.31-1.04-2.31-2.31,1.04-2.31,2.31-2.31,2.31,1.04,2.31,2.31Z"/>
        <path class="cls-2" d="M97.13,262.33c0,1.28-1.04,2.31-2.31,2.31s-2.31-1.04-2.31-2.31,1.04-2.31,2.31-2.31,2.31,1.04,2.31,2.31Z"/>
        <path class="cls-2" d="M106.27,288.44c0,1.28-1.04,2.31-2.31,2.31s-2.31-1.04-2.31-2.31,1.04-2.31,2.31-2.31,2.31,1.04,2.31,2.31Z"/>
        <path class="cls-2" d="M120.82,274.19c0,1.28-1.04,2.31-2.31,2.31s-2.31-1.04-2.31-2.31,1.04-2.31,2.31-2.31,2.31,1.04,2.31,2.31Z"/>
        <circle class="cls-2" cx="123.89" cy="267.07" r="2.31"/>
        <path class="cls-2" d="M122.59,253.87c0,1.28-1.04,2.31-2.31,2.31s-2.31-1.04-2.31-2.31,1.04-2.31,2.31-2.31,2.31,1.04,2.31,2.31Z"/>
        <circle class="cls-2" cx="132.46" cy="243.27" r="2.31"/>
        <path class="cls-2" d="M134.3,223.24c-.11,1.27-1.23,2.22-2.5,2.1-1.27-.11-2.21-1.23-2.1-2.5,.11-1.27,1.23-2.22,2.5-2.1,1.27,.11,2.21,1.23,2.1,2.5Z"/>
        <path class="cls-2" d="M122.17,206.98c-.11,1.27-1.23,2.22-2.5,2.1-1.27-.11-2.21-1.23-2.1-2.5,.11-1.27,1.23-2.22,2.5-2.1,1.27,.11,2.21,1.23,2.1,2.5Z"/>
        <path class="cls-2" d="M147.47,253.57c0,1.28-1.04,2.31-2.31,2.31s-2.31-1.04-2.31-2.31,1.04-2.31,2.31-2.31,2.31,1.04,2.31,2.31Z"/>
        <path class="cls-2" d="M134.87,273.16c0,1.28-1.04,2.31-2.31,2.31s-2.31-1.04-2.31-2.31,1.04-2.31,2.31-2.31,2.31,1.04,2.31,2.31Z"/>
        <path class="cls-2" d="M124.79,302.8c.32,1.24-.42,2.5-1.66,2.82-1.24,.32-2.5-.42-2.82-1.66-.32-1.24,.42-2.5,1.66-2.82,1.24-.32,2.5,.42,2.82,1.66Z"/>
        <path class="cls-2" d="M73.38,192.86c0,1.28-1.04,2.31-2.31,2.31s-2.31-1.04-2.31-2.31,1.04-2.31,2.31-2.31,2.31,1.04,2.31,2.31Z"/>
        <path class="cls-2" d="M94.86,207.17c0,1.28-1.04,2.31-2.31,2.31s-2.31-1.04-2.31-2.31,1.04-2.31,2.31-2.31,2.31,1.04,2.31,2.31Z"/>
        <path class="cls-2" d="M105.69,186.16c0,1.28-1.04,2.31-2.31,2.31s-2.31-1.04-2.31-2.31,1.04-2.31,2.31-2.31,2.31,1.04,2.31,2.31Z"/>
        <circle class="cls-7" cx="116.11" cy="148.32" r="2.31"/>
        <path class="cls-7" d="M142.44,176.2c.31,1.24-.45,2.49-1.69,2.8-1.24,.31-2.49-.45-2.8-1.69-.31-1.24,.45-2.49,1.69-2.8,1.24-.31,2.49,.45,2.8,1.69Z"/>
        <path class="cls-7" d="M140.62,189.32c.31,1.24-.45,2.49-1.69,2.8-1.24,.31-2.49-.45-2.8-1.69-.31-1.24,.45-2.49,1.69-2.8,1.24-.31,2.49,.45,2.8,1.69Z"/>
        <path class="cls-7" d="M91.33,182.23c.31,1.24-.45,2.49-1.69,2.8-1.24,.31-2.49-.45-2.8-1.69-.31-1.24,.45-2.49,1.69-2.8,1.24-.31,2.49,.45,2.8,1.69Z"/>
        <path class="cls-7" d="M79.61,217.3c.31,1.24-.45,2.49-1.69,2.8-1.24,.31-2.49-.45-2.8-1.69-.31-1.24,.45-2.49,1.69-2.8,1.24-.31,2.49,.45,2.8,1.69Z"/>
        <path class="cls-7" d="M84.02,246.86c.31,1.24-.45,2.49-1.69,2.8-1.24,.31-2.49-.45-2.8-1.69-.31-1.24,.45-2.49,1.69-2.8,1.24-.31,2.49,.45,2.8,1.69Z"/>
        <path class="cls-7" d="M88.46,279.65c.31,1.24-.45,2.49-1.69,2.8-1.24,.31-2.49-.45-2.8-1.69-.31-1.24,.45-2.49,1.69-2.8,1.24-.31,2.49,.45,2.8,1.69Z"/>
        <path class="cls-7" d="M131.89,283.73c.61,1.12,.19,2.53-.93,3.14-1.12,.61-2.53,.19-3.14-.93-.61-1.12-.19-2.53,.93-3.14,1.12-.61,2.53-.19,3.14,.93Z"/>
        <path class="cls-7" d="M140.95,265.06c.3,1.22-.44,2.45-1.66,2.75-1.22,.3-2.45-.44-2.75-1.66-.3-1.22,.44-2.45,1.66-2.75,1.22-.3,2.45,.44,2.75,1.66Z"/>
        <path class="cls-7" d="M117.57,195.72c.56,1.15,.08,2.53-1.07,3.09-1.15,.56-2.53,.08-3.09-1.07-.56-1.15-.08-2.53,1.07-3.09,1.15-.56,2.53-.08,3.09,1.07Z"/>
        <path class="cls-7" d="M137.85,233.69c.56,1.15,.08,2.53-1.07,3.09-1.15,.56-2.53,.08-3.09-1.07-.56-1.15-.08-2.53,1.07-3.09,1.15-.56,2.53-.08,3.09,1.07Z"/>
        <path class="cls-2" d="M111.87,134.75c0,1.28-1.04,2.31-2.31,2.31s-2.31-1.04-2.31-2.31,1.04-2.31,2.31-2.31,2.31,1.04,2.31,2.31Z"/>
        <path class="cls-7" d="M127.61,114.78c0,1.28-1.04,2.31-2.31,2.31s-2.31-1.04-2.31-2.31,1.04-2.31,2.31-2.31,2.31,1.04,2.31,2.31Z"/>
        <path class="cls-2" d="M116.04,125.47c0,1.28-1.04,2.31-2.31,2.31s-2.31-1.04-2.31-2.31,1.04-2.31,2.31-2.31,2.31,1.04,2.31,2.31Z"/>
        <path class="cls-2" d="M130.42,137.65c0,1.28-1.04,2.31-2.31,2.31s-2.31-1.04-2.31-2.31,1.04-2.31,2.31-2.31,2.31,1.04,2.31,2.31Z"/>
        <path class="cls-1" d="M124.71,302.36c3-1.51,5.34-4.28,6.34-7.49s.62-6.82-1-9.76"/>
        <line class="cls-5" x1="141.16" y1="223.04" x2="134.77" y2="223.04"/>
        <line class="cls-5" x1="141.39" y1="206.78" x2="122.17" y2="206.78"/>
        <line class="cls-2" x1="141.75" y1="228.72" x2="135.77" y2="234.7"/>
        <line class="cls-5" x1="143.09" y1="194.58" x2="138.38" y2="189.87"/>
      </g>
      <g>
        <path class="cls-1" d="M180.24,277.89v20.66c.17,6,3.99,11.5,9.43,14.03,5.44,2.52,12.43,1.44,16.67-2.8,4.24-4.24,5.09-11.34,1.98-16.47"/>
        <path class="cls-1" d="M180.24,135.34v-17.43c.17-6,3.99-11.5,9.43-14.03,5.44-2.52,12.43-1.44,16.67,2.8,4.24,4.24,5.27,11.42,2.17,16.56"/>
        <path class="cls-1" d="M202.59,276.83c-.45,7.47,3.1,15.09,9.19,19.43,6.09,4.34,14.53,5.21,21.32,2.06,6.78-3.15,11.6-10.23,11.89-17.71,.18-4.55-1.27-9.19-4.23-12.66-2.95-3.47-7.42-5.66-11.98-5.62"/>
        <path class="cls-1" d="M238.2,225.49c7.34-.74,14.94,3.06,18.76,9.36,3.82,6.31,3.67,14.8-.38,20.97-4.05,6.16-11.79,10.01-19.09,9"/>
        <path class="cls-2" d="M258.79,175.14c3.37-3.07,5.3-7.67,5.12-12.24-.18-4.56-2.45-9-6.06-11.8-1.68-1.31-3.63-2.24-5.68-2.78"/>
        <path class="cls-2" d="M236.65,165.38c5.32-.42,10.34-3.58,13.07-8.17,2.73-4.59,3.14-10.47,1.13-15.41-2.01-4.94-6.38-8.85-11.49-10.38-4.82-1.44-10.23-.76-14.55,1.82-4.32,2.58-7.47,7.03-8.49,11.95"/>
        <path class="cls-1" d="M234.8,129.8c1.9-4.97,1.63-10.73-.74-15.49s-6.8-8.46-11.91-9.94c-5.11-1.48-10.83-.72-15.37,2.04"/>
        <path class="cls-2" d="M254.42,207.8c5.37-2.44,9.64-7.29,11.16-13,1.51-5.7,.14-12.14-3.74-16.59-3.88-4.44-10.22-6.67-15.98-5.4"/>
        <path class="cls-2" d="M255.36,231.96c5.45-2.15,9.7-7.1,10.99-12.82s-.43-12.02-4.43-16.29"/>
        <path class="cls-1" d="M190.94,136.61c-5.18-2.25-11.56-1.46-16.04,1.99-4.48,3.45-6.87,9.42-6.01,15s4.92,10.56,10.23,12.52"/>
        <path class="cls-1" d="M186.84,275.02c-3.47,2.87-8.62,3.52-12.69,1.6s-6.85-6.3-6.85-10.8c0-4.5,2.79-8.88,6.86-10.79"/>
        <path class="cls-5" d="M173.64,162.59c-5.14,3.14-7.84,9.81-6.34,15.64,1,3.89,3.82,7.19,7.37,9.04v6.37"/>
        <path class="cls-5" d="M172.46,255.86c-3.06,.3-6.08-1.9-7.5-4.63-1.42-2.73-1.33-6.09-.16-8.93,.96-2.34,2.72-4.44,5.07-5.37,2.35-.93,5.32-.46,6.96,1.46v-6.64"/>
        <path class="cls-1" d="M233.66,147.38c-1.02,4.13-3.9,7.75-7.69,9.68-3.79,1.93-8.42,2.12-12.35,.52-3.94-1.6-7.11-4.98-8.47-9"/>
        <path class="cls-1" d="M248.08,194.37c-3.82,2.34-6.57,6.35-7.37,10.76-.8,4.41,.36,9.13,3.11,12.66"/>
        <path class="cls-1" d="M239.11,247.41c-5.8-.6-11.31-3.62-14.93-8.19-3.62-4.57-5.3-10.63-4.55-16.41"/>
        <path class="cls-1" d="M218.25,286.12c1.13-5.15-.44-10.82-4.06-14.66s-9.19-5.72-14.4-4.89"/>
        <path class="cls-1" d="M224.07,239.09c-3.54,1.82-6.53,4.67-8.52,8.11-1.99,3.44-2.97,7.46-2.78,11.43"/>
        <path class="cls-1" d="M243.89,198.16c-3.61-.42-7.01-2.4-9.16-5.33-2.15-2.93-3.01-6.77-2.33-10.33"/>
        <path class="cls-1" d="M220.19,158.91c.43,4.52-1.11,9.19-4.15,12.56-3.04,3.37-7.52,5.39-12.06,5.44"/>
        <path class="cls-1" d="M190.71,241.98c4.62-3.27,7.56-8.79,7.71-14.44s-2.51-11.32-6.95-14.83h-11.38"/>
        <path class="cls-1" d="M198.28,222.45c5.49-.81,10.33-5.01,11.91-10.33,1.57-5.32-.2-11.48-4.37-15.15"/>
        <path class="cls-1" d="M226.33,206.15c-3.48-1.14-6.48-3.66-8.2-6.88s-2.13-7.13-1.14-10.64"/>
        <path class="cls-1" d="M187.62,157.5c2.39,3.19,3.09,7.58,1.8,11.36-1.29,3.78-4.52,6.83-8.37,7.89"/>
        <path class="cls-1" d="M209.13,134.24c-4.32-.59-8.34-3.05-10.84-6.62-2.49-3.57-3.41-8.2-2.48-12.45"/>
        <path class="cls-1" d="M193.98,187.72c.54,4.24-.85,8.69-3.71,11.86h-10.18"/>
        <path class="cls-1" d="M182.47,265.68c.83-3.54,2.97-6.75,5.91-8.89s6.66-3.17,10.28-2.87"/>
        <path class="cls-1" d="M235.04,279.67c-1.76-2.91-4.66-5.12-7.93-6.05-3.27-.93-6.9-.59-9.93,.95"/>
        <path class="cls-2" d="M213.51,147.49c0,1.28,1.04,2.31,2.31,2.31s2.31-1.04,2.31-2.31-1.04-2.31-2.31-2.31-2.31,1.04-2.31,2.31Z"/>
        <path class="cls-2" d="M199.36,176.91c0,1.28,1.04,2.31,2.31,2.31s2.31-1.04,2.31-2.31-1.04-2.31-2.31-2.31-2.31,1.04-2.31,2.31Z"/>
        <path class="cls-2" d="M191.5,184.82c-.27,1.25,.53,2.48,1.78,2.75,1.25,.27,2.48-.53,2.75-1.78,.27-1.25-.53-2.48-1.78-2.75-1.25-.27-2.48,.53-2.75,1.78Z"/>
        <path class="cls-2" d="M184.06,154.94c-.31,1.24,.45,2.49,1.69,2.8,1.24,.31,2.49-.45,2.8-1.69,.31-1.24-.45-2.49-1.69-2.8-1.24-.31-2.49,.45-2.8,1.69Z"/>
        <path class="cls-2" d="M179.29,166.57c-.31,1.24,.45,2.49,1.69,2.8,1.24,.31,2.49-.45,2.8-1.69,.31-1.24-.45-2.49-1.69-2.8-1.24-.31-2.49,.45-2.8,1.69Z"/>
        <circle class="cls-2" cx="234.4" cy="145.18" r="2.31"/>
        <circle class="cls-2" cx="234.06" cy="165.77" r="2.31"/>
        <path class="cls-2" d="M241.18,173.31c0,1.28,1.04,2.31,2.31,2.31s2.31-1.04,2.31-2.31-1.04-2.31-2.31-2.31-2.31,1.04-2.31,2.31Z"/>
        <path class="cls-2" d="M249.86,209.07c0,1.28,1.04,2.31,2.31,2.31s2.31-1.04,2.31-2.31-1.04-2.31-2.31-2.31-2.31,1.04-2.31,2.31Z"/>
        <path class="cls-2" d="M233.37,225.88c0,1.28,1.04,2.31,2.31,2.31s2.31-1.04,2.31-2.31-1.04-2.31-2.31-2.31-2.31,1.04-2.31,2.31Z"/>
        <path class="cls-2" d="M217.62,220.5c0,1.28,1.04,2.31,2.31,2.31s2.31-1.04,2.31-2.31-1.04-2.31-2.31-2.31-2.31,1.04-2.31,2.31Z"/>
        <path class="cls-2" d="M210.43,260.94c0,1.28,1.04,2.31,2.31,2.31s2.31-1.04,2.31-2.31-1.04-2.31-2.31-2.31-2.31,1.04-2.31,2.31Z"/>
        <path class="cls-2" d="M224.13,262.33c0,1.28,1.04,2.31,2.31,2.31s2.31-1.04,2.31-2.31-1.04-2.31-2.31-2.31-2.31,1.04-2.31,2.31Z"/>
        <path class="cls-2" d="M214.99,288.44c0,1.28,1.04,2.31,2.31,2.31s2.31-1.04,2.31-2.31-1.04-2.31-2.31-2.31-2.31,1.04-2.31,2.31Z"/>
        <path class="cls-2" d="M200.44,274.19c0,1.28,1.04,2.31,2.31,2.31s2.31-1.04,2.31-2.31-1.04-2.31-2.31-2.31-2.31,1.04-2.31,2.31Z"/>
        <circle class="cls-2" cx="197.36" cy="267.07" r="2.31"/>
        <path class="cls-2" d="M198.67,253.87c0,1.28,1.04,2.31,2.31,2.31s2.31-1.04,2.31-2.31-1.04-2.31-2.31-2.31-2.31,1.04-2.31,2.31Z"/>
        <circle class="cls-2" cx="188.8" cy="243.27" r="2.31"/>
        <path class="cls-2" d="M186.96,223.24c.11,1.27,1.23,2.22,2.5,2.1,1.27-.11,2.21-1.23,2.1-2.5-.11-1.27-1.23-2.22-2.5-2.1-1.27,.11-2.21,1.23-2.1,2.5Z"/>
        <path class="cls-2" d="M199.09,206.98c.11,1.27,1.23,2.22,2.5,2.1,1.27-.11,2.21-1.23,2.1-2.5-.11-1.27-1.23-2.22-2.5-2.1-1.27,.11-2.21,1.23-2.1,2.5Z"/>
        <path class="cls-2" d="M173.78,253.57c0,1.28,1.04,2.31,2.31,2.31s2.31-1.04,2.31-2.31-1.04-2.31-2.31-2.31-2.31,1.04-2.31,2.31Z"/>
        <path class="cls-2" d="M186.38,273.16c0,1.28,1.04,2.31,2.31,2.31s2.31-1.04,2.31-2.31-1.04-2.31-2.31-2.31-2.31,1.04-2.31,2.31Z"/>
        <path class="cls-2" d="M196.46,302.8c-.32,1.24,.42,2.5,1.66,2.82,1.24,.32,2.5-.42,2.82-1.66,.32-1.24-.42-2.5-1.66-2.82-1.24-.32-2.5,.42-2.82,1.66Z"/>
        <path class="cls-2" d="M247.88,192.86c0,1.28,1.04,2.31,2.31,2.31s2.31-1.04,2.31-2.31-1.04-2.31-2.31-2.31-2.31,1.04-2.31,2.31Z"/>
        <path class="cls-2" d="M226.4,207.17c0,1.28,1.04,2.31,2.31,2.31s2.31-1.04,2.31-2.31-1.04-2.31-2.31-2.31-2.31,1.04-2.31,2.31Z"/>
        <path class="cls-2" d="M215.57,186.16c0,1.28,1.04,2.31,2.31,2.31s2.31-1.04,2.31-2.31-1.04-2.31-2.31-2.31-2.31,1.04-2.31,2.31Z"/>
        <circle class="cls-7" cx="205.15" cy="148.32" r="2.31"/>
        <path class="cls-7" d="M178.81,176.2c-.31,1.24,.45,2.49,1.69,2.8,1.24,.31,2.49-.45,2.8-1.69,.31-1.24-.45-2.49-1.69-2.8-1.24-.31-2.49,.45-2.8,1.69Z"/>
        <path class="cls-7" d="M180.63,189.32c-.31,1.24,.45,2.49,1.69,2.8,1.24,.31,2.49-.45,2.8-1.69,.31-1.24-.45-2.49-1.69-2.8-1.24-.31-2.49,.45-2.8,1.69Z"/>
        <path class="cls-7" d="M229.93,182.23c-.31,1.24,.45,2.49,1.69,2.8,1.24,.31,2.49-.45,2.8-1.69,.31-1.24-.45-2.49-1.69-2.8-1.24-.31-2.49,.45-2.8,1.69Z"/>
        <path class="cls-7" d="M241.64,217.3c-.31,1.24,.45,2.49,1.69,2.8,1.24,.31,2.49-.45,2.8-1.69,.31-1.24-.45-2.49-1.69-2.8-1.24-.31-2.49,.45-2.8,1.69Z"/>
        <path class="cls-7" d="M237.23,246.86c-.31,1.24,.45,2.49,1.69,2.8,1.24,.31,2.49-.45,2.8-1.69,.31-1.24-.45-2.49-1.69-2.8-1.24-.31-2.49,.45-2.8,1.69Z"/>
        <path class="cls-7" d="M232.8,279.65c-.31,1.24,.45,2.49,1.69,2.8,1.24,.31,2.49-.45,2.8-1.69,.31-1.24-.45-2.49-1.69-2.8-1.24-.31-2.49,.45-2.8,1.69Z"/>
        <path class="cls-7" d="M189.37,283.73c-.61,1.12-.19,2.53,.93,3.14,1.12,.61,2.53,.19,3.14-.93,.61-1.12,.19-2.53-.93-3.14-1.12-.61-2.53-.19-3.14,.93Z"/>
        <path class="cls-7" d="M180.31,265.06c-.3,1.22,.44,2.45,1.66,2.75,1.22,.3,2.45-.44,2.75-1.66,.3-1.22-.44-2.45-1.66-2.75-1.22-.3-2.45,.44-2.75,1.66Z"/>
        <path class="cls-7" d="M203.69,195.72c-.56,1.15-.08,2.53,1.07,3.09,1.15,.56,2.53,.08,3.09-1.07,.56-1.15,.08-2.53-1.07-3.09-1.15-.56-2.53-.08-3.09,1.07Z"/>
        <path class="cls-7" d="M183.4,233.69c-.56,1.15-.08,2.53,1.07,3.09,1.15,.56,2.53,.08,3.09-1.07,.56-1.15,.08-2.53-1.07-3.09-1.15-.56-2.53-.08-3.09,1.07Z"/>
        <path class="cls-2" d="M209.39,134.75c0,1.28,1.04,2.31,2.31,2.31s2.31-1.04,2.31-2.31-1.04-2.31-2.31-2.31-2.31,1.04-2.31,2.31Z"/>
        <path class="cls-7" d="M193.65,114.78c0,1.28,1.04,2.31,2.31,2.31s2.31-1.04,2.31-2.31-1.04-2.31-2.31-2.31-2.31,1.04-2.31,2.31Z"/>
        <path class="cls-2" d="M205.22,125.47c0,1.28,1.04,2.31,2.31,2.31s2.31-1.04,2.31-2.31-1.04-2.31-2.31-2.31-2.31,1.04-2.31,2.31Z"/>
        <path class="cls-2" d="M190.84,137.65c0,1.28,1.04,2.31,2.31,2.31s2.31-1.04,2.31-2.31-1.04-2.31-2.31-2.31-2.31,1.04-2.31,2.31Z"/>
        <path class="cls-1" d="M196.55,302.36c-3-1.51-5.34-4.28-6.34-7.49s-.62-6.82,1-9.76"/>
        <line class="cls-5" x1="180.09" y1="223.04" x2="186.49" y2="223.04"/>
        <line class="cls-5" x1="179.87" y1="206.78" x2="199.08" y2="206.78"/>
        <line class="cls-2" x1="179.5" y1="228.72" x2="185.48" y2="234.7"/>
        <line class="cls-5" x1="178.17" y1="194.58" x2="182.88" y2="189.87"/>
      </g>
    </g>
    <g>
      <path class="cls-7" d="M174.89,232.09h-28.7c-2.77,0-5.03-2.26-5.03-5.03v-28.7c0-2.77,2.26-5.03,5.03-5.03h28.7c2.77,0,5.03,2.26,5.03,5.03v28.7c0,2.77-2.26,5.03-5.03,5.03Zm-28.7-37.59c-2.13,0-3.86,1.73-3.86,3.86v28.7c0,2.13,1.73,3.86,3.86,3.86h28.7c2.13,0,3.86-1.73,3.86-3.86v-28.7c0-2.13-1.73-3.86-3.86-3.86h-28.7Z"/>
      <g>
        <path class="cls-7" d="M173.94,196.42h-26.78c-1.61,0-2.91,1.3-2.91,2.91v26.78c0,1.61,1.3,2.91,2.91,2.91h26.78c1.61,0,2.91-1.3,2.91-2.91v-26.78c0-1.61-1.3-2.91-2.91-2.91Zm-12.25,24.69l-1.34-3.69h-7.22l-1.34,3.69h-4.93l7.54-18.99h4.76l7.56,18.99h-5.03Zm11.22,0h-4.83v-18.99h4.83v18.99Z"/>
        <polygon class="cls-7" points="154.54 213.45 158.93 213.45 156.74 207.37 154.54 213.45"/>
      </g>
    </g>
    <g>
      <polyline class="cls-3" points="163.29 193.65 163.29 139.24 172.17 130.37 172.17 105.47 182.66 94.98 182.66 83.19 194.72 71.13 194.72 17.87 177.35 .5"/>
      <polyline class="cls-3" points="172.69 94.16 172.69 86.96 164.47 78.74 164.47 58.69 177.91 45.25 177.91 29.35"/>
      <polyline class="cls-3" points="165.04 91.36 165.04 111.06 168.6 114.63 168.6 122.24 165.53 125.31"/>
      <g>
        <path class="cls-4" d="M174.83,96.37c0,1.17-.95,2.11-2.11,2.11s-2.11-.95-2.11-2.11,.95-2.11,2.11-2.11,2.11,.95,2.11,2.11Z"/>
        <path class="cls-7" d="M173.77,96.37c0,.58-.47,1.05-1.05,1.05s-1.05-.47-1.05-1.05,.47-1.05,1.05-1.05,1.05,.47,1.05,1.05Z"/>
      </g>
      <g>
        <path class="cls-4" d="M166.13,126.87c0,1.17-.95,2.11-2.11,2.11s-2.11-.95-2.11-2.11,.95-2.11,2.11-2.11,2.11,.95,2.11,2.11Z"/>
        <path class="cls-7" d="M165.07,126.87c0,.58-.47,1.05-1.05,1.05s-1.05-.47-1.05-1.05,.47-1.05,1.05-1.05,1.05,.47,1.05,1.05Z"/>
      </g>
      <g>
        <path class="cls-4" d="M167.15,89c0,1.17-.95,2.11-2.11,2.11s-2.11-.95-2.11-2.11,.95-2.11,2.11-2.11,2.11,.95,2.11,2.11Z"/>
        <circle class="cls-7" cx="165.04" cy="89" r="1.05"/>
      </g>
      <g>
        <path class="cls-4" d="M173.31,77.25c0,1.17-.95,2.11-2.11,2.11s-2.11-.95-2.11-2.11,.95-2.11,2.11-2.11,2.11,.95,2.11,2.11Z"/>
        <circle class="cls-7" cx="171.2" cy="77.25" r="1.05"/>
      </g>
      <g>
        <circle class="cls-4" cx="181.22" cy="75.72" r="2.11"/>
        <circle class="cls-7" cx="181.22" cy="75.72" r="1.05"/>
      </g>
      <g>
        <circle class="cls-4" cx="178.06" cy="54.28" r="2.11"/>
        <circle class="cls-7" cx="178.06" cy="54.28" r="1.05"/>
      </g>
      <g>
        <circle class="cls-4" cx="170.71" cy="65.03" r="2.11"/>
        <circle class="cls-7" cx="170.71" cy="65.03" r="1.05"/>
      </g>
      <g>
        <circle class="cls-4" cx="160.54" cy="49.05" r="2.11"/>
        <path class="cls-7" d="M161.6,49.05c0,.58-.47,1.05-1.05,1.05s-1.05-.47-1.05-1.05,.47-1.05,1.05-1.05,1.05,.47,1.05,1.05Z"/>
      </g>
      <g>
        <path class="cls-4" d="M162.65,117.72c0,1.17-.95,2.11-2.11,2.11s-2.11-.95-2.11-2.11,.95-2.11,2.11-2.11,2.11,.95,2.11,2.11Z"/>
        <path class="cls-7" d="M161.6,117.72c0,.58-.47,1.05-1.05,1.05s-1.05-.47-1.05-1.05,.47-1.05,1.05-1.05,1.05,.47,1.05,1.05Z"/>
      </g>
      <g>
        <path class="cls-4" d="M162.65,351.65c0,1.17-.95,2.11-2.11,2.11s-2.11-.95-2.11-2.11,.95-2.11,2.11-2.11,2.11,.95,2.11,2.11Z"/>
        <path class="cls-7" d="M161.6,351.65c0,.58-.47,1.05-1.05,1.05s-1.05-.47-1.05-1.05,.47-1.05,1.05-1.05,1.05,.47,1.05,1.05Z"/>
      </g>
      <g>
        <circle class="cls-4" cx="160.54" cy="284.83" r="2.11"/>
        <path class="cls-7" d="M161.6,284.83c0,.58-.47,1.05-1.05,1.05s-1.05-.47-1.05-1.05,.47-1.05,1.05-1.05,1.05,.47,1.05,1.05Z"/>
      </g>
      <g>
        <path class="cls-4" d="M189.2,38.47c0,1.17-.95,2.11-2.11,2.11s-2.11-.95-2.11-2.11,.95-2.11,2.11-2.11,2.11,.95,2.11,2.11Z"/>
        <path class="cls-7" d="M188.14,38.47c0,.58-.47,1.05-1.05,1.05s-1.05-.47-1.05-1.05,.47-1.05,1.05-1.05,1.05,.47,1.05,1.05Z"/>
      </g>
      <g>
        <circle class="cls-4" cx="177.91" cy="26.87" r="2.11"/>
        <path class="cls-7" d="M178.96,26.87c0,.58-.47,1.05-1.05,1.05s-1.05-.47-1.05-1.05,.47-1.05,1.05-1.05,1.05,.47,1.05,1.05Z"/>
      </g>
      <g>
        <circle class="cls-4" cx="171.1" cy="44.42" r="2.11"/>
        <circle class="cls-7" cx="171.1" cy="44.42" r="1.05"/>
      </g>
      <polyline class="cls-3" points="172.8 75.72 178.06 70.46 178.06 56.64"/>
      <polyline class="cls-3" points="182.74 73.88 187.03 69.59 187.03 40.66"/>
      <polyline class="cls-3" points="169.47 42.82 165.89 39.24 165.89 24.39 173.53 16.75 173.53 1.04"/>
      <polyline class="cls-3" points="157.54 193.65 157.54 139.24 148.66 130.37 148.66 105.47 138.17 94.98 138.17 83.19 126.11 71.13 126.11 17.87 142.15 1.82"/>
      <polyline class="cls-3" points="148.14 94.16 148.14 86.96 156.36 78.74 156.36 58.69 142.92 45.25 142.92 29.35"/>
      <polyline class="cls-3" points="155.79 91.36 155.79 111.06 152.23 114.63 152.23 122.24 155.29 125.31"/>
      <g>
        <circle class="cls-4" cx="148.11" cy="96.37" r="2.11"/>
        <circle class="cls-7" cx="148.11" cy="96.37" r="1.05"/>
      </g>
      <g>
        <circle class="cls-4" cx="156.81" cy="126.87" r="2.11"/>
        <circle class="cls-7" cx="156.81" cy="126.87" r="1.05"/>
      </g>
      <g>
        <path class="cls-4" d="M153.68,89c0,1.17,.95,2.11,2.11,2.11s2.11-.95,2.11-2.11-.95-2.11-2.11-2.11-2.11,.95-2.11,2.11Z"/>
        <circle class="cls-7" cx="155.79" cy="89" r="1.05"/>
      </g>
      <g>
        <path class="cls-4" d="M147.51,77.25c0,1.17,.95,2.11,2.11,2.11s2.11-.95,2.11-2.11-.95-2.11-2.11-2.11-2.11,.95-2.11,2.11Z"/>
        <path class="cls-7" d="M148.57,77.25c0,.58,.47,1.05,1.05,1.05s1.05-.47,1.05-1.05-.47-1.05-1.05-1.05-1.05,.47-1.05,1.05Z"/>
      </g>
      <g>
        <circle class="cls-4" cx="139.61" cy="75.72" r="2.11"/>
        <circle class="cls-7" cx="139.61" cy="75.72" r="1.05"/>
      </g>
      <g>
        <circle class="cls-4" cx="142.77" cy="54.28" r="2.11"/>
        <circle class="cls-7" cx="142.77" cy="54.28" r="1.05"/>
      </g>
      <g>
        <circle class="cls-4" cx="150.12" cy="65.03" r="2.11"/>
        <circle class="cls-7" cx="150.12" cy="65.03" r="1.05"/>
      </g>
      <g>
        <circle class="cls-4" cx="133.74" cy="38.47" r="2.11"/>
        <circle class="cls-7" cx="133.74" cy="38.47" r="1.05"/>
      </g>
      <g>
        <circle class="cls-4" cx="142.92" cy="26.87" r="2.11"/>
        <circle class="cls-7" cx="142.92" cy="26.87" r="1.05"/>
      </g>
      <g>
        <circle class="cls-4" cx="149.73" cy="44.42" r="2.11"/>
        <path class="cls-7" d="M148.67,44.42c0,.58,.47,1.05,1.05,1.05s1.05-.47,1.05-1.05-.47-1.05-1.05-1.05-1.05,.47-1.05,1.05Z"/>
      </g>
      <polyline class="cls-3" points="148.03 75.72 142.77 70.46 142.77 56.64"/>
      <polyline class="cls-3" points="138.09 73.88 133.8 69.59 133.8 40.66"/>
      <polyline class="cls-3" points="151.36 42.82 154.94 39.24 154.94 24.39 147.3 16.75 147.3 1.82"/>
      <line class="cls-3" x1="160.54" y1="46.81" x2="160.54" y2=".41"/>
      <line class="cls-3" x1="160.54" y1="115.31" x2="160.54" y2="51.64"/>
      <line class="cls-3" x1="160.62" y1="353.98" x2="160.62" y2="393.04"/>
      <g>
        <polyline class="cls-3" points="163.24 256.86 163.24 275.48 172.01 284.25 172.01 309.17 181.38 318.54 181.38 340.21"/>
        <g>
          <path class="cls-4" d="M183.49,342.47c0,1.17-.95,2.11-2.11,2.11s-2.11-.95-2.11-2.11,.95-2.11,2.11-2.11,2.11,.95,2.11,2.11Z"/>
          <circle class="cls-7" cx="181.38" cy="342.47" r="1.05"/>
        </g>
        <g>
          <path class="cls-4" d="M172.34,334.45c0,1.17-.95,2.11-2.11,2.11s-2.11-.95-2.11-2.11,.95-2.11,2.11-2.11,2.11,.95,2.11,2.11Z"/>
          <path class="cls-7" d="M171.28,334.45c0,.58-.47,1.05-1.05,1.05s-1.05-.47-1.05-1.05,.47-1.05,1.05-1.05,1.05,.47,1.05,1.05Z"/>
        </g>
        <g>
          <circle class="cls-4" cx="168.43" cy="290.64" r="2.11"/>
          <circle class="cls-7" cx="168.43" cy="290.64" r="1.05"/>
        </g>
        <polyline class="cls-3" points="166.71 292.07 164.32 294.46 164.32 316.16 170.23 322.07 170.23 332.02"/>
        <polyline class="cls-3" points="164.32 324.29 164.32 343.52 170.38 349.59 170.38 392.16"/>
      </g>
      <g>
        <polyline class="cls-3" points="139.7 340.21 139.7 318.54 149.07 309.17 149.07 284.25 157.85 275.48 157.85 256.86 160.54 254.17 163.24 256.87"/>
        <g>
          <circle class="cls-4" cx="139.7" cy="342.47" r="2.11"/>
          <circle class="cls-7" cx="139.7" cy="342.47" r="1.05"/>
        </g>
        <g>
          <path class="cls-4" d="M148.74,334.45c0,1.17,.95,2.11,2.11,2.11s2.11-.95,2.11-2.11-.95-2.11-2.11-2.11-2.11,.95-2.11,2.11Z"/>
          <circle class="cls-7" cx="150.85" cy="334.45" r="1.05"/>
        </g>
        <g>
          <path class="cls-4" d="M150.54,290.64c0,1.17,.95,2.11,2.11,2.11s2.11-.95,2.11-2.11-.95-2.11-2.11-2.11-2.11,.95-2.11,2.11Z"/>
          <path class="cls-7" d="M151.6,290.64c0,.58,.47,1.05,1.05,1.05s1.05-.47,1.05-1.05-.47-1.05-1.05-1.05-1.05,.47-1.05,1.05Z"/>
        </g>
        <polyline class="cls-3" points="154.38 292.07 156.77 294.46 156.77 316.16 150.85 322.07 150.85 332.02"/>
        <polyline class="cls-3" points="156.77 324.29 156.77 343.52 150.7 349.59 150.7 392.16"/>
      </g>
      <line class="cls-3" x1="160.54" y1="254.17" x2="160.54" y2="231.76"/>
      <line class="cls-3" x1="160.54" y1="286.94" x2="160.54" y2="349.54"/>
    </g>
  </g>
</svg>